<?xml version="1.0" standalone="no"?>
<!DOCTYPE svg PUBLIC "-//W3C//DTD SVG 20010904//EN"
 "http://www.w3.org/TR/2001/REC-SVG-20010904/DTD/svg10.dtd">
<svg version="1.0" xmlns="http://www.w3.org/2000/svg"
 width="1800.000000pt" height="1800.000000pt" viewBox="0 0 1800.000000 1800.000000"
 preserveAspectRatio="xMidYMid meet">

<g transform="translate(0.000000,1800.000000) scale(0.100000,-0.100000)"
fill="#000000" stroke="none">
<path d="M7330 14743 c-113 -9 -343 -47 -473 -78 -370 -89 -652 -217 -957
-435 -271 -194 -429 -350 -639 -629 -177 -234 -320 -513 -438 -855 -19 -55
-38 -107 -43 -116 -5 -10 -40 -35 -77 -57 -274 -163 -688 -304 -1060 -362
-151 -24 -475 -51 -606 -51 -62 0 -100 -5 -124 -17 -119 -56 -209 -365 -174
-593 18 -111 66 -245 116 -320 78 -117 251 -268 387 -336 138 -70 225 -102
558 -205 279 -87 624 -162 930 -203 305 -40 363 -46 465 -46 l97 0 80 -85 c87
-92 189 -219 240 -299 30 -46 33 -57 33 -131 0 -70 -4 -89 -32 -149 -61 -127
-158 -230 -468 -498 -354 -305 -586 -572 -774 -892 -180 -305 -302 -637 -345
-938 -55 -386 -38 -730 54 -1083 47 -178 69 -245 145 -430 112 -275 293 -584
469 -800 339 -417 691 -722 1166 -1010 636 -386 1490 -670 2310 -769 416 -50
523 -56 1000 -56 1209 1 2205 173 3110 537 398 160 832 405 1165 656 92 69
320 263 414 352 79 75 270 288 377 420 388 482 665 1033 853 1696 78 274 155
715 182 1034 18 207 18 987 1 1215 -44 581 -109 958 -216 1252 -75 209 -121
284 -204 336 -169 106 -381 48 -912 -252 -283 -160 -640 -328 -895 -421 -55
-20 -134 -49 -175 -65 -131 -49 -400 -130 -575 -174 -324 -81 -639 -134 -1055
-177 -153 -16 -658 -17 -780 -1 -258 34 -350 52 -475 94 -172 57 -294 138
-335 222 -19 39 -20 50 -10 88 16 59 65 149 202 368 206 330 266 443 352 664
89 227 158 553 178 836 48 696 -138 1334 -537 1835 -241 302 -629 583 -985
712 -357 129 -602 182 -994 213 -119 9 -422 11 -526 3z m528 -403 c81 -5 170
-14 197 -19 28 -6 84 -15 125 -22 420 -65 827 -244 1110 -489 88 -76 72 -60
185 -185 50 -55 93 -102 96 -105 14 -11 129 -201 167 -275 81 -160 150 -351
185 -515 41 -190 48 -247 54 -440 10 -316 -21 -571 -102 -840 -25 -82 -85
-251 -100 -280 -8 -14 -34 -66 -59 -117 -52 -104 -136 -247 -245 -413 -93
-143 -189 -325 -207 -393 -21 -78 -28 -214 -15 -282 32 -171 195 -357 396
-454 214 -103 423 -159 735 -196 191 -23 720 -20 970 5 190 19 226 23 435 55
573 87 1229 285 1806 546 165 75 234 109 419 211 30 17 129 71 219 120 90 50
185 100 210 110 25 11 75 33 110 50 35 16 71 28 80 26 8 -2 26 -30 39 -63 26
-64 86 -284 103 -375 93 -515 114 -775 114 -1400 0 -503 -12 -686 -64 -970 -5
-25 -14 -79 -21 -120 -21 -127 -74 -352 -114 -487 -39 -126 -127 -386 -136
-398 -4 -5 -13 -28 -20 -50 -16 -50 -44 -112 -131 -291 -147 -304 -286 -521
-524 -819 -294 -369 -754 -751 -1185 -985 -212 -115 -430 -221 -560 -273 -413
-165 -862 -294 -1270 -366 -30 -5 -82 -14 -115 -20 -136 -24 -246 -40 -340
-51 -55 -6 -122 -15 -150 -20 -27 -5 -95 -12 -150 -15 -55 -3 -149 -10 -209
-15 -262 -22 -786 -33 -1041 -21 -433 21 -603 38 -940 97 -461 81 -943 231
-1369 426 -115 53 -171 82 -371 193 -124 69 -416 257 -451 290 -6 5 -76 63
-156 127 -174 141 -441 410 -563 568 -49 63 -92 117 -95 120 -11 10 -146 217
-173 265 -29 52 -108 213 -147 300 -27 60 -97 256 -110 305 -28 113 -64 300
-76 395 -16 126 -18 350 -5 439 6 34 15 97 22 141 12 87 52 260 77 340 44 144
150 367 259 547 109 179 335 447 509 603 49 44 91 82 94 85 3 3 52 45 110 94
409 349 580 612 583 896 0 68 -5 101 -27 164 -49 143 -114 243 -291 446 -61
70 -95 117 -95 132 0 13 21 79 46 148 42 115 71 217 96 330 16 79 21 249 8
294 -48 161 -112 266 -353 576 -105 135 -252 367 -268 424 -11 37 7 127 41
211 5 11 21 54 36 95 26 74 132 292 182 380 194 333 485 641 792 837 473 303
977 418 1638 373z m-2990 -2181 c38 -70 191 -293 305 -444 143 -188 224 -314
233 -360 3 -18 -2 -70 -11 -116 -18 -89 -95 -330 -121 -381 l-16 -30 -76 6
c-354 31 -521 56 -862 131 -318 69 -709 190 -865 267 -166 81 -303 229 -319
344 -10 78 -7 171 7 181 6 6 93 15 192 21 491 32 997 163 1404 363 53 27 100
48 104 49 4 0 16 -14 25 -31z"/>
<path d="M6533 13071 c-135 -50 -242 -172 -293 -336 -34 -107 -32 -271 5 -383
37 -111 109 -211 193 -269 79 -54 127 -68 228 -67 69 1 91 6 148 32 131 61
229 189 270 350 20 80 21 233 1 309 -38 151 -143 290 -260 347 -80 39 -212 47
-292 17z"/>
</g>
</svg>
