<?xml version="1.0" standalone="no"?>
<!DOCTYPE svg PUBLIC "-//W3C//DTD SVG 20010904//EN"
 "http://www.w3.org/TR/2001/REC-SVG-20010904/DTD/svg10.dtd">
<svg version="1.0" xmlns="http://www.w3.org/2000/svg"
 width="2400.000000pt" height="2400.000000pt" viewBox="0 0 2400.000000 2400.000000"
 preserveAspectRatio="xMidYMid meet">

<g transform="translate(0.000000,2400.000000) scale(0.100000,-0.100000)"
fill="#000000" stroke="none">
<path d="M11710 18979 c-297 -25 -451 -46 -650 -85 -948 -190 -1762 -575
-2431 -1150 -396 -340 -730 -757 -1096 -1369 -270 -452 -473 -926 -633 -1480
-107 -369 -185 -750 -286 -1400 -28 -181 -66 -369 -85 -421 -29 -77 -89 -171
-239 -374 -754 -1019 -1244 -2043 -1341 -2800 -19 -143 -17 -442 3 -547 46
-237 137 -395 323 -561 131 -116 249 -172 430 -203 190 -32 501 33 671 140 26
17 52 31 56 31 4 0 8 -14 8 -32 0 -57 50 -379 86 -553 92 -446 201 -770 374
-1115 182 -363 386 -627 712 -921 99 -89 311 -250 367 -279 68 -34 69 -43 14
-102 -95 -102 -168 -236 -199 -365 -23 -94 -23 -279 0 -358 91 -314 450 -536
1021 -634 66 -11 167 -25 225 -31 58 -6 112 -13 120 -15 8 -3 101 -9 205 -15
393 -21 798 30 1056 132 252 99 470 290 569 497 l32 66 831 -3 c458 -2 894 1
969 5 76 5 142 7 148 5 6 -2 24 -32 39 -67 59 -131 148 -238 275 -334 251
-191 514 -269 1016 -302 245 -16 531 4 879 62 237 40 394 85 546 158 287 137
422 278 480 502 18 67 20 225 4 301 -27 131 -106 290 -191 384 -32 36 -56 69
-52 75 3 5 24 22 47 36 75 47 270 196 362 277 290 255 465 467 648 786 207
361 346 748 451 1255 38 184 86 484 86 540 0 19 5 35 10 35 6 0 45 -17 88 -39
308 -155 631 -172 880 -47 182 92 334 247 420 427 79 166 107 315 106 569 -1
410 -100 781 -370 1393 -232 526 -566 1080 -1020 1693 -130 176 -186 265 -207
331 -21 68 -58 268 -117 633 -168 1041 -352 1654 -704 2340 -184 359 -498 846
-739 1145 -453 563 -1069 1021 -1801 1340 -300 131 -772 278 -1086 340 -74 14
-153 30 -175 35 -83 19 -302 47 -510 65 -171 16 -470 17 -625 4z m720 -388
c155 -17 305 -45 610 -111 56 -12 142 -35 241 -64 31 -9 65 -16 76 -16 11 0
23 -3 26 -6 6 -7 180 -67 242 -84 45 -12 247 -92 355 -139 186 -82 424 -206
550 -286 36 -23 70 -44 75 -46 53 -22 352 -242 500 -368 117 -99 288 -268 366
-361 30 -36 62 -74 73 -85 10 -11 36 -43 57 -72 21 -28 43 -54 48 -58 8 -5
159 -212 207 -283 41 -61 130 -199 134 -207 3 -6 20 -31 38 -57 17 -26 32 -49
32 -52 0 -3 20 -37 45 -76 25 -39 45 -72 45 -74 0 -3 26 -51 58 -108 112 -197
291 -576 331 -698 10 -30 30 -82 43 -115 46 -109 131 -375 178 -555 12 -47 28
-105 35 -130 8 -25 20 -74 29 -110 8 -36 24 -103 35 -150 27 -118 79 -394 101
-540 7 -41 22 -136 35 -210 12 -74 28 -171 35 -215 45 -299 103 -471 210 -617
17 -24 61 -83 96 -133 35 -49 97 -134 137 -189 130 -178 299 -427 362 -535 6
-9 57 -95 114 -191 161 -271 166 -279 218 -380 27 -52 54 -104 60 -115 22 -40
123 -253 123 -259 0 -3 11 -29 24 -58 111 -243 228 -593 267 -803 52 -278 52
-535 1 -700 -42 -135 -166 -278 -292 -339 -63 -30 -70 -31 -195 -31 -117 1
-137 4 -205 29 -149 56 -306 149 -483 287 -118 92 -406 383 -523 529 -104 129
-288 389 -352 495 -67 113 -242 467 -295 595 -31 77 -111 140 -177 140 -77 0
-162 -65 -185 -142 -19 -66 -9 -103 91 -321 72 -157 152 -320 185 -378 15 -26
42 -73 60 -105 105 -191 340 -510 523 -714 89 -99 256 -260 330 -318 32 -26
62 -57 67 -71 6 -14 5 -57 -1 -110 -5 -47 -15 -129 -21 -181 -16 -146 -38
-283 -66 -420 -14 -69 -27 -136 -30 -150 -13 -63 -89 -327 -125 -435 -114
-336 -267 -626 -481 -909 -78 -103 -284 -315 -407 -418 -79 -66 -318 -234
-410 -287 -310 -179 -689 -335 -1037 -427 -54 -14 -114 -30 -133 -35 -136 -36
-511 -107 -630 -119 -47 -5 -121 -14 -165 -19 -44 -6 -210 -20 -370 -31 -159
-11 -319 -25 -355 -30 -70 -10 -707 -26 -990 -24 -191 1 -906 22 -1010 29
-526 38 -658 52 -970 101 -194 31 -173 27 -315 59 -66 15 -136 31 -155 35
-163 36 -499 143 -690 221 -246 100 -635 320 -810 458 -147 116 -309 269 -405
381 -193 227 -361 496 -460 740 -15 36 -33 79 -40 95 -14 31 -48 127 -83 230
-90 267 -171 664 -202 990 -6 66 -14 152 -19 190 -9 81 -33 48 180 245 340
315 655 739 870 1170 136 274 209 453 209 512 0 75 -59 153 -135 178 -67 22
-162 -12 -201 -73 -11 -18 -44 -84 -73 -147 -147 -317 -237 -481 -396 -716
-168 -248 -337 -450 -549 -654 -178 -172 -339 -291 -520 -384 -131 -67 -203
-87 -331 -93 -95 -4 -119 -2 -175 17 -161 55 -288 199 -346 395 -24 82 -26
106 -26 257 0 195 11 279 74 548 19 83 110 360 141 430 9 19 30 71 47 115 66
166 194 438 293 620 167 309 457 767 648 1025 346 466 385 548 448 940 6 36
22 137 36 225 22 134 49 293 96 555 17 94 61 288 94 415 38 145 67 254 81 305
23 81 104 330 119 365 7 17 31 77 54 135 35 93 92 230 138 330 53 118 180 360
274 524 217 379 452 709 678 955 47 51 93 102 101 113 23 28 284 265 375 339
165 134 375 277 580 394 79 44 366 185 379 185 2 0 38 16 79 35 41 19 78 35
81 35 3 0 25 8 49 19 217 96 617 214 927 275 69 13 168 31 220 40 52 10 111
21 131 26 20 6 65 10 100 11 35 1 89 5 119 9 70 10 638 3 750 -9z m-3969
-12996 c94 -48 364 -162 469 -198 327 -113 744 -210 1100 -256 250 -33 317
-41 443 -52 92 -8 137 -16 137 -24 0 -21 -102 -121 -162 -159 -117 -74 -288
-136 -433 -157 -38 -5 -104 -15 -145 -21 -117 -16 -461 -22 -595 -9 -519 50
-827 134 -1007 275 -42 34 -64 61 -89 111 -29 60 -31 71 -26 135 8 101 64 214
151 308 39 41 76 72 87 72 11 0 42 -11 70 -25z m7206 -17 c50 -47 121 -143
146 -198 114 -252 -44 -446 -454 -558 -120 -33 -316 -69 -439 -82 -63 -6 -145
-16 -182 -21 -154 -21 -507 -6 -743 31 -163 25 -325 81 -430 148 -128 82 -199
156 -167 176 4 2 102 14 217 25 678 68 1145 171 1615 358 104 41 313 135 335
149 32 23 54 16 102 -28z"/>
<path d="M9370 15104 c-190 -51 -330 -236 -330 -435 0 -171 124 -349 282 -405
60 -21 173 -28 242 -15 178 33 317 173 347 348 53 319 -235 589 -541 507z"/>
<path d="M14395 15100 c-33 -11 -89 -39 -123 -63 -281 -195 -245 -613 65 -760
64 -30 74 -32 184 -32 114 0 116 0 194 39 46 23 99 59 126 86 91 91 142 249
120 373 -46 264 -319 435 -566 357z"/>
<path d="M11781 14399 c-560 -27 -1084 -162 -1411 -364 -64 -39 -125 -88 -185
-149 -132 -134 -185 -246 -185 -396 0 -186 83 -333 265 -473 187 -142 477
-270 740 -326 28 -6 79 -17 115 -25 447 -101 1180 -107 1660 -14 58 11 116 22
130 25 81 15 247 58 325 85 198 67 461 212 571 315 212 198 253 470 103 699
-113 175 -354 332 -669 438 -267 90 -503 140 -775 166 -339 32 -399 33 -684
19z m474 -379 c162 -10 441 -46 572 -75 374 -81 654 -217 765 -369 153 -211
-338 -493 -1012 -580 -249 -33 -369 -39 -673 -33 -284 6 -371 12 -542 37 -395
60 -714 178 -885 328 -156 136 -131 250 83 390 338 220 1026 343 1692 302z"/>
</g>
</svg>
