<?xml version="1.0" standalone="no"?>
<!DOCTYPE svg PUBLIC "-//W3C//DTD SVG 20010904//EN"
 "http://www.w3.org/TR/2001/REC-SVG-20010904/DTD/svg10.dtd">
<svg version="1.0" xmlns="http://www.w3.org/2000/svg"
 width="2400.000000pt" height="2400.000000pt" viewBox="0 0 2400.000000 2400.000000"
 preserveAspectRatio="xMidYMid meet">

<g transform="translate(0.000000,2400.000000) scale(0.100000,-0.100000)"
fill="#000000" stroke="none">
<path d="M11910 22666 c-156 -33 -312 -170 -405 -355 -99 -198 -180 -622 -155
-816 5 -38 6 -73 3 -78 -3 -5 -34 23 -70 62 -101 111 -266 219 -404 266 -193
66 -383 32 -498 -90 -57 -60 -85 -111 -106 -192 -38 -146 2 -375 97 -550 105
-194 297 -422 422 -500 69 -44 72 -58 14 -73 -78 -20 -280 -92 -397 -142 -572
-245 -1037 -625 -1369 -1120 -46 -68 -157 -250 -164 -269 -2 -4 -124 -12 -273
-18 -505 -22 -845 -62 -1494 -177 -132 -23 -311 -62 -368 -80 -38 -12 -60 -27
-80 -53 -26 -33 -28 -44 -32 -146 -4 -116 14 -395 30 -481 11 -59 26 -75 124
-132 79 -46 163 -127 193 -187 33 -67 61 -169 107 -400 141 -698 204 -918 337
-1176 129 -252 306 -440 526 -561 39 -22 72 -42 72 -45 0 -2 -15 -37 -34 -76
-58 -121 -78 -212 -83 -385 -8 -241 27 -393 128 -548 274 -420 807 -544 1599
-375 89 19 80 28 163 -156 326 -725 459 -1335 508 -2328 27 -544 -39 -1263
-161 -1750 -94 -378 -194 -654 -350 -970 -220 -445 -286 -537 -1177 -1633
-377 -463 -592 -775 -800 -1162 -253 -469 -412 -965 -474 -1485 -19 -154 -16
-565 4 -710 82 -579 295 -1016 679 -1391 491 -479 1193 -814 2103 -1004 626
-130 1201 -177 2040 -167 441 5 569 11 890 42 823 79 1546 274 2140 575 357
182 613 376 909 690 144 153 324 454 412 688 44 117 106 359 130 507 27 161
27 707 1 880 -78 502 -178 816 -404 1270 -107 213 -167 315 -309 530 -231 346
-381 540 -1077 1388 -343 417 -523 696 -706 1093 -123 267 -191 463 -271 784
-132 526 -198 1112 -187 1665 9 418 21 566 82 1010 41 294 147 736 245 1020
70 202 245 605 270 620 5 3 38 -1 72 -9 35 -9 135 -28 223 -43 138 -22 189
-26 365 -26 219 0 313 12 477 58 300 85 520 284 623 565 85 231 71 547 -32
757 -17 34 -28 69 -25 76 3 8 34 30 69 50 149 83 273 193 378 332 113 152 170
262 250 486 39 107 49 143 105 354 13 50 55 250 94 445 39 195 78 380 87 410
35 121 116 222 227 281 88 46 115 68 127 103 16 41 39 330 40 485 0 221 -12
229 -465 311 -88 16 -182 34 -210 39 -27 6 -99 17 -160 26 -60 9 -117 18 -125
20 -15 4 -115 17 -265 35 -336 40 -488 52 -725 57 -146 3 -273 10 -283 15 -9
5 -31 34 -47 66 -88 167 -290 444 -445 610 -239 254 -540 474 -884 646 -153
77 -434 187 -553 217 -27 6 -48 14 -48 18 0 12 23 36 65 66 49 37 132 119 211
211 161 188 245 350 289 562 50 242 -32 450 -213 539 -74 37 -79 38 -186 38
-90 0 -124 -4 -181 -24 -145 -48 -297 -146 -415 -265 -41 -42 -78 -76 -82 -76
-4 0 -4 40 -1 88 12 185 -30 481 -94 666 -100 289 -254 458 -459 501 -81 17
-110 17 -184 1z m172 -326 c135 -90 230 -335 258 -669 16 -187 -5 -418 -61
-679 -26 -119 -111 -383 -142 -437 l-23 -40 -94 -3 c-52 -2 -104 -1 -116 2
-33 9 -111 186 -157 356 -105 388 -115 855 -26 1140 67 214 181 358 285 360
18 0 49 -12 76 -30z m-1317 -882 c121 -36 319 -195 432 -349 23 -31 48 -62 55
-70 23 -23 97 -153 181 -319 43 -85 86 -168 94 -183 9 -16 11 -32 7 -37 -5 -5
-67 -16 -137 -25 l-129 -16 -73 42 c-215 123 -473 398 -564 602 -29 64 -61
189 -61 237 0 44 36 119 62 130 25 10 71 5 133 -12z m2608 0 c39 -19 61 -76
54 -140 -25 -205 -126 -386 -328 -585 -134 -132 -323 -273 -367 -273 -9 0 -72
7 -139 16 -93 13 -123 20 -123 31 0 26 156 335 220 438 93 147 134 200 235
300 176 176 350 258 448 213z m-1098 -1263 c563 -49 946 -148 1338 -346 313
-158 500 -290 726 -512 156 -154 421 -488 421 -532 0 -9 -22 -15 -77 -20 -364
-30 -727 -83 -1038 -151 -215 -47 -365 -89 -753 -215 -213 -69 -392 -114 -561
-139 -127 -19 -172 -21 -380 -17 -320 7 -425 28 -961 194 -495 153 -797 224
-1135 268 -192 26 -547 65 -582 65 -23 0 -33 5 -33 15 0 32 232 335 355 464
83 87 277 260 355 318 157 115 434 272 595 337 39 16 88 36 110 46 41 18 247
84 300 96 17 4 35 10 40 14 6 4 28 10 50 13 22 3 72 13 110 22 168 38 323 59
585 79 240 18 326 19 535 1z m-5015 -1948 c78 -27 120 -71 101 -106 -6 -10
-34 -29 -63 -42 -46 -20 -68 -24 -168 -24 -101 0 -121 3 -163 24 -27 14 -54
35 -60 49 -10 22 -8 28 25 56 20 18 54 37 75 43 53 15 211 15 253 0z m9765
-14 c55 -27 71 -49 63 -89 -2 -11 -27 -28 -63 -43 -51 -22 -76 -26 -160 -26
-84 0 -109 4 -159 25 -73 31 -87 50 -66 87 28 50 93 71 227 72 93 1 108 -2
158 -26z m-4875 -665 c86 -27 172 -103 228 -201 20 -35 162 -423 162 -443 0
-5 12 -32 26 -61 34 -66 28 -88 -18 -69 -46 20 -160 42 -313 62 -207 27 -590
1 -760 -51 -27 -8 -53 -15 -57 -15 -13 0 -9 43 6 59 8 9 35 79 61 156 110 324
133 378 197 451 86 98 194 137 353 128 44 -3 96 -10 115 -16z m43 -1018 c135
-14 225 -34 389 -86 86 -28 149 -54 163 -68 12 -12 46 -69 74 -127 90 -178
230 -377 365 -516 135 -140 227 -213 389 -310 144 -85 222 -121 382 -173 186
-60 329 -90 550 -115 209 -24 662 -17 860 14 77 12 173 31 213 41 110 30 113
29 145 -43 138 -309 72 -631 -165 -810 -160 -119 -352 -164 -657 -154 -301 11
-525 60 -1051 232 -557 182 -830 246 -1280 301 -212 26 -919 26 -1135 1 -439
-53 -771 -132 -1355 -322 -543 -177 -853 -235 -1152 -214 -330 23 -550 143
-655 359 -91 187 -90 395 2 594 l36 78 42 -5 c23 -3 87 -15 142 -27 349 -75
886 -82 1215 -15 41 8 98 19 125 24 236 42 554 189 782 360 110 82 256 230
343 346 75 100 207 316 252 412 35 74 57 91 158 126 292 100 517 127 823 97z
m102 -2100 c235 -13 444 -40 695 -91 111 -23 368 -91 485 -128 179 -58 286
-89 328 -97 60 -10 48 -34 -41 -76 -307 -147 -532 -226 -795 -279 -327 -66
-573 -89 -957 -89 -517 0 -884 47 -1238 156 -233 72 -599 229 -609 261 -5 14
23 27 102 48 28 7 118 34 200 59 472 146 850 216 1265 235 258 12 355 12 565
1z m1535 -714 c0 -7 -11 -34 -24 -62 -61 -128 -159 -428 -211 -649 -163 -689
-223 -1215 -212 -1885 10 -627 67 -1060 218 -1655 58 -231 121 -412 230 -662
223 -514 411 -798 974 -1473 440 -528 678 -838 903 -1177 63 -95 223 -376 286
-501 108 -216 199 -454 250 -657 91 -364 119 -562 120 -860 1 -271 -31 -502
-101 -734 -19 -64 -37 -125 -40 -136 -2 -11 -12 -31 -22 -43 l-17 -23 -84 57
c-185 125 -291 220 -406 364 -259 324 -460 893 -562 1590 -21 139 -36 177 -84
212 -67 48 -152 26 -207 -53 -22 -32 -23 -40 -18 -139 19 -341 183 -981 344
-1335 182 -401 400 -658 755 -889 94 -61 116 -80 111 -94 -7 -18 -76 -110
-151 -202 -48 -59 -196 -205 -259 -256 -240 -195 -456 -326 -788 -479 -200
-93 -525 -202 -805 -271 -102 -24 -201 -49 -220 -53 -45 -12 -304 -58 -395
-71 -38 -6 -99 -15 -135 -20 -36 -6 -114 -15 -175 -20 -60 -6 -182 -17 -270
-25 -88 -8 -316 -19 -506 -26 -463 -15 -852 -2 -1359 47 -161 15 -194 20 -420
55 -672 103 -1304 309 -1735 564 -42 25 -79 45 -81 45 -9 0 -189 123 -264 180
-132 101 -245 206 -347 322 -164 187 -188 229 -140 247 39 15 240 152 318 217
124 103 285 291 383 448 153 244 324 685 386 996 5 25 20 99 34 166 14 67 31
154 37 195 6 41 17 117 24 169 21 140 19 191 -7 230 -54 78 -128 99 -197 56
-54 -34 -77 -73 -84 -144 -19 -178 -132 -711 -189 -892 -140 -440 -338 -772
-592 -989 -85 -73 -253 -191 -273 -191 -24 0 -67 107 -113 280 -60 229 -75
352 -75 635 0 330 32 544 139 930 67 242 212 583 345 815 243 421 447 697
1230 1658 390 479 505 649 695 1022 152 301 234 507 327 830 125 431 194 836
235 1385 32 425 6 1055 -67 1575 -59 427 -216 1028 -335 1289 -32 69 -41 101
-29 101 3 0 40 -18 83 -39 164 -84 426 -173 695 -235 228 -54 458 -81 802 -97
562 -25 1080 29 1519 157 212 62 460 160 516 203 25 20 40 19 40 -3z"/>
<path d="M11413 16151 c-76 -55 -143 -191 -143 -292 0 -53 3 -63 33 -96 28
-30 40 -36 74 -36 49 0 81 23 136 95 56 75 99 170 99 221 2 115 -107 174 -199
108z"/>
<path d="M12452 16160 c-69 -42 -77 -128 -21 -243 73 -151 164 -221 238 -183
89 47 82 193 -18 346 -62 95 -130 122 -199 80z"/>
</g>
</svg>
