<?xml version="1.0" standalone="no"?>
<!DOCTYPE svg PUBLIC "-//W3C//DTD SVG 20010904//EN"
 "http://www.w3.org/TR/2001/REC-SVG-20010904/DTD/svg10.dtd">
<svg version="1.0" xmlns="http://www.w3.org/2000/svg"
 width="2048.000000pt" height="2048.000000pt" viewBox="0 0 2048.000000 2048.000000"
 preserveAspectRatio="xMidYMid meet">

<g transform="translate(0.000000,2048.000000) scale(0.100000,-0.100000)"
fill="#000000" stroke="none">
<path d="M11420 17933 c-132 -14 -354 -70 -495 -125 -431 -167 -854 -525
-1163 -984 -408 -608 -642 -1384 -642 -2124 1 -397 63 -729 206 -1093 55 -139
137 -310 360 -747 106 -207 158 -322 174 -385 5 -16 16 -57 25 -90 10 -35 17
-99 17 -153 1 -85 -2 -98 -32 -160 -37 -75 -126 -169 -190 -202 -83 -42 -133
-54 -235 -54 -124 0 -219 27 -385 111 -304 153 -515 312 -1335 1007 -274 232
-432 359 -680 546 -90 67 -446 302 -550 363 -111 64 -405 204 -548 262 -266
106 -597 181 -906 205 -183 14 -288 13 -475 -5 -692 -67 -1304 -391 -1727
-917 -199 -247 -351 -542 -424 -822 -51 -199 -68 -328 -68 -526 0 -335 71
-620 238 -944 164 -320 371 -593 676 -891 663 -648 1381 -984 2104 -984 133 0
202 6 431 39 143 21 455 112 699 205 39 15 81 30 95 35 14 4 93 35 175 68 425
170 640 238 879 278 125 20 361 15 450 -10 236 -66 436 -278 436 -461 0 -47
-22 -129 -52 -195 -141 -310 -637 -654 -1523 -1060 -99 -45 -263 -120 -365
-167 -433 -198 -821 -410 -1072 -586 -187 -132 -274 -203 -432 -357 -396 -387
-682 -854 -810 -1324 -51 -184 -68 -313 -73 -551 -13 -544 119 -989 428 -1450
349 -521 882 -916 1441 -1069 515 -141 1013 -105 1444 105 642 312 1022 914
1239 1964 9 44 20 103 25 130 4 28 19 118 34 200 24 144 32 194 56 370 6 44
15 107 20 140 12 81 27 192 40 300 14 114 24 183 56 370 14 83 28 166 30 185
6 42 13 76 54 245 112 467 306 800 527 906 153 73 357 43 496 -74 166 -138
293 -384 405 -782 42 -147 68 -257 153 -630 171 -758 403 -1287 759 -1729 349
-433 885 -801 1460 -1001 643 -224 1226 -254 1797 -94 532 149 977 506 1188
952 56 118 89 221 122 377 23 109 26 150 27 320 1 213 -9 303 -56 498 -42 178
-89 306 -178 487 -205 419 -517 766 -942 1050 -269 180 -497 291 -1099 539
-74 30 -178 73 -231 95 -153 63 -443 213 -563 292 -122 79 -274 223 -319 302
-40 67 -76 181 -76 235 0 129 82 265 210 352 136 92 263 128 530 150 148 12
364 2 655 -30 50 -6 133 -15 185 -20 52 -5 136 -14 185 -20 50 -6 131 -15 180
-20 50 -4 169 -16 265 -26 224 -22 956 -26 1120 -6 514 64 836 154 1199 337
239 120 397 231 561 395 431 430 595 993 463 1590 -117 530 -422 984 -858
1277 -348 234 -730 372 -1240 450 -187 28 -622 25 -805 -5 -616 -103 -1066
-352 -1700 -941 -378 -352 -527 -457 -720 -510 -97 -27 -183 -27 -257 1 -220
81 -334 289 -279 503 34 128 91 229 322 565 376 550 517 772 705 1116 273 502
416 884 520 1399 20 100 30 184 44 380 23 318 -6 646 -84 936 -70 264 -185
527 -319 730 -339 514 -893 863 -1513 953 -98 15 -388 20 -489 9z m513 -617
c62 -13 126 -30 142 -38 17 -9 48 -21 70 -28 101 -32 297 -141 430 -240 76
-56 236 -216 298 -298 26 -34 47 -65 47 -68 0 -3 13 -24 28 -47 86 -127 182
-353 220 -522 48 -208 55 -285 56 -570 0 -262 -2 -290 -28 -435 -34 -193 -48
-251 -98 -415 -86 -281 -179 -500 -345 -810 -160 -299 -329 -565 -745 -1175
-278 -408 -388 -676 -388 -948 0 -147 28 -264 100 -419 167 -359 519 -583 916
-583 382 0 686 162 1194 635 129 120 361 322 455 397 285 226 596 375 925 444
194 40 561 42 760 4 30 -6 78 -15 105 -19 28 -5 100 -23 160 -41 61 -17 124
-35 140 -39 49 -13 230 -88 306 -126 180 -91 316 -190 457 -334 56 -57 102
-108 102 -112 0 -5 13 -23 28 -41 16 -18 49 -69 74 -113 142 -251 198 -453
198 -717 0 -138 -3 -160 -30 -254 -79 -275 -250 -498 -517 -676 -94 -63 -93
-63 -228 -130 -460 -232 -1012 -313 -1785 -263 -124 8 -272 19 -330 25 -58 6
-143 15 -190 20 -47 5 -148 16 -225 24 -144 16 -264 29 -443 46 -136 13 -624
13 -715 -1 -40 -5 -117 -19 -172 -30 -524 -106 -873 -442 -951 -915 -30 -186
14 -416 118 -617 150 -289 439 -534 888 -757 156 -77 395 -182 695 -305 116
-48 247 -104 293 -126 46 -21 85 -39 88 -39 15 0 292 -144 370 -193 196 -121
318 -218 468 -371 304 -311 483 -676 537 -1098 28 -221 -34 -489 -157 -676
-156 -237 -419 -421 -752 -526 -281 -88 -667 -106 -982 -45 -297 58 -637 182
-895 328 -385 216 -659 466 -879 799 -76 116 -94 147 -158 277 -27 55 -55 111
-63 125 -23 43 -102 249 -148 390 -44 133 -95 317 -137 495 -11 50 -29 126
-40 170 -10 44 -29 123 -41 175 -33 149 -77 315 -110 419 -52 166 -91 276
-100 285 -5 6 -9 17 -9 25 0 20 -91 209 -143 296 -148 250 -358 447 -577 542
-142 61 -255 84 -420 85 -200 2 -325 -25 -485 -104 -364 -181 -639 -596 -804
-1213 -37 -138 -78 -325 -90 -407 -6 -35 -19 -121 -29 -193 -11 -71 -27 -186
-36 -255 -9 -69 -23 -163 -31 -210 -8 -47 -26 -168 -40 -270 -58 -418 -92
-612 -147 -845 -120 -513 -261 -830 -488 -1100 -201 -238 -471 -384 -799 -430
-199 -28 -417 -10 -631 53 -125 37 -320 124 -417 185 -24 15 -45 27 -47 27 -3
0 -20 10 -38 23 -316 218 -558 492 -729 827 -86 168 -150 376 -180 585 -24
163 -14 432 21 590 5 22 14 65 21 95 55 251 203 534 428 815 35 44 131 148
215 230 206 205 408 356 726 540 97 56 473 239 740 360 361 164 398 181 650
307 318 158 465 241 674 380 546 362 836 782 836 1211 0 321 -144 608 -417
832 -37 30 -174 110 -246 143 -201 94 -480 136 -750 114 -330 -27 -559 -93
-1223 -353 -557 -218 -805 -279 -1133 -279 -188 0 -232 5 -403 46 -283 68
-670 265 -958 488 -156 121 -393 345 -495 468 -16 20 -57 69 -91 110 -88 106
-183 247 -247 368 -16 30 -36 62 -43 71 -8 8 -14 20 -14 26 0 10 -30 83 -65
158 -20 44 -52 168 -70 270 -32 181 -30 295 6 480 53 269 150 475 328 700 72
90 249 267 326 325 61 46 220 150 229 150 3 0 27 13 53 28 26 16 80 41 118 56
39 15 84 34 100 41 70 30 284 78 462 104 209 31 601 0 843 -66 30 -8 69 -18
85 -23 17 -4 37 -10 45 -13 8 -3 60 -22 115 -42 293 -108 655 -309 974 -542
119 -88 163 -121 321 -248 96 -76 301 -245 455 -375 632 -532 838 -693 1117
-871 270 -172 463 -253 714 -300 97 -18 371 -6 471 20 244 64 466 215 596 405
115 169 177 374 177 582 0 87 -8 149 -40 324 -5 25 -22 83 -40 130 -17 47 -36
100 -41 118 -10 34 -146 304 -296 592 -176 337 -289 643 -332 900 -28 165 -31
209 -31 395 0 292 25 475 112 835 25 103 48 176 118 365 238 643 700 1161
1215 1365 111 44 211 68 355 84 84 10 304 -5 413 -28z"/>
<path d="M10480 11044 c-303 -57 -497 -156 -672 -342 -202 -215 -301 -467
-302 -767 -1 -434 232 -804 629 -999 123 -61 229 -90 391 -108 270 -29 572 61
793 239 221 177 359 416 406 706 28 170 13 332 -45 507 -50 151 -108 258 -202
371 -155 186 -337 301 -578 366 -77 20 -123 26 -245 28 -82 2 -161 1 -175 -1z
m284 -606 c316 -98 467 -451 319 -743 -86 -169 -265 -275 -466 -275 -269 0
-490 207 -514 482 -9 109 23 230 86 321 131 191 368 280 575 215z"/>
</g>
</svg>
