<svg width="740" height="740" viewBox="0 0 740 740" fill="none" xmlns="http://www.w3.org/2000/svg">
<g id="Poddle">
<g id="left-bottom">
<rect id="Rectangle 1" x="140" y="610" width="70" height="70" rx="35" fill="#71A9EA"/>
<rect id="Rectangle 2" x="60" y="530" width="70" height="70" rx="35" fill="#71A9EA"/>
<rect id="Rectangle 3" x="140" y="450" width="70" height="70" rx="35" fill="#71A9EA"/>
<rect id="Rectangle 4" x="220" y="530" width="70" height="70" rx="35" fill="#71A9EA"/>
<rect id="Rectangle 5" x="270" y="670" width="70" height="70" rx="35" fill="#71A9EA"/>
<rect id="Rectangle 6" y="400" width="70" height="70" rx="35" fill="#71A9EA"/>
</g>
<g id="left-top">
<rect id="Rectangle 1_2" x="130" y="140" width="70" height="70" rx="35" transform="rotate(90 130 140)" fill="#71A9EA"/>
<rect id="Rectangle 2_2" x="210" y="60" width="70" height="70" rx="35" transform="rotate(90 210 60)" fill="#71A9EA"/>
<rect id="Rectangle 3_2" x="290" y="140" width="70" height="70" rx="35" transform="rotate(90 290 140)" fill="#71A9EA"/>
<rect id="Rectangle 4_2" x="210" y="220" width="70" height="70" rx="35" transform="rotate(90 210 220)" fill="#71A9EA"/>
<rect id="Rectangle 5_2" x="70" y="270" width="70" height="70" rx="35" transform="rotate(90 70 270)" fill="#71A9EA"/>
<rect id="Rectangle 6_2" x="340" width="70" height="70" rx="35" transform="rotate(90 340 0)" fill="#71A9EA"/>
</g>
<g id="right-bottom">
<rect id="Rectangle 1_3" x="610" y="600" width="70" height="70" rx="35" transform="rotate(-90 610 600)" fill="#71A9EA"/>
<rect id="Rectangle 2_3" x="530" y="680" width="70" height="70" rx="35" transform="rotate(-90 530 680)" fill="#71A9EA"/>
<rect id="Rectangle 3_3" x="450" y="600" width="70" height="70" rx="35" transform="rotate(-90 450 600)" fill="#71A9EA"/>
<rect id="Rectangle 4_3" x="530" y="520" width="70" height="70" rx="35" transform="rotate(-90 530 520)" fill="#71A9EA"/>
<rect id="Rectangle 5_3" x="670" y="470" width="70" height="70" rx="35" transform="rotate(-90 670 470)" fill="#71A9EA"/>
<rect id="Rectangle 6_3" x="400" y="740" width="70" height="70" rx="35" transform="rotate(-90 400 740)" fill="#71A9EA"/>
</g>
<g id="right-top">
<rect id="Rectangle 1_4" x="600" y="130" width="70" height="70" rx="35" transform="rotate(180 600 130)" fill="#71A9EA"/>
<rect id="Rectangle 2_4" x="680" y="210" width="70" height="70" rx="35" transform="rotate(180 680 210)" fill="#71A9EA"/>
<rect id="Rectangle 3_4" x="600" y="290" width="70" height="70" rx="35" transform="rotate(180 600 290)" fill="#71A9EA"/>
<rect id="Rectangle 4_4" x="520" y="210" width="70" height="70" rx="35" transform="rotate(180 520 210)" fill="#71A9EA"/>
<rect id="Rectangle 5_4" x="470" y="70" width="70" height="70" rx="35" transform="rotate(180 470 70)" fill="#71A9EA"/>
<rect id="Rectangle 6_4" x="740" y="340" width="70" height="70" rx="35" transform="rotate(180 740 340)" fill="#71A9EA"/>
</g>
</g>
</svg>
