<svg width="48" height="48" viewBox="0 0 48 48" fill="none" xmlns="http://www.w3.org/2000/svg">
<path d="M26.7656 5.9695C26.4562 6.00231 25.9359 6.13356 25.6054 6.26246C24.5953 6.65387 23.6039 7.49293 22.8797 8.56871C21.9234 9.99371 21.375 11.8125 21.375 13.5468C21.3773 14.4773 21.5226 15.2554 21.8578 16.1086C21.9867 16.4343 22.1789 16.8351 22.7015 17.8593C22.95 18.3445 23.0719 18.614 23.1094 18.7617C23.1211 18.7992 23.1469 18.8953 23.1679 18.9726C23.1914 19.0547 23.2078 19.2047 23.2078 19.3312C23.2101 19.5304 23.2031 19.5609 23.1328 19.7062C23.0461 19.882 22.8375 20.1023 22.6875 20.1797C22.493 20.2781 22.3758 20.3062 22.1367 20.3062C21.8461 20.3062 21.6234 20.2429 21.2344 20.0461C20.5219 19.6875 20.0273 19.3148 18.1054 17.6859C17.4633 17.1422 17.0929 16.8445 16.5117 16.4062C16.3008 16.2492 15.4664 15.6984 15.2226 15.5554C14.9625 15.4054 14.2734 15.0773 13.9383 14.9414C13.3148 14.6929 12.539 14.5172 11.8148 14.4609C11.3859 14.4281 11.1398 14.4304 10.7015 14.4726C9.07967 14.6297 7.64529 15.389 6.65389 16.6218C6.18748 17.2007 5.83123 17.8922 5.66014 18.5484C5.54061 19.0148 5.50076 19.3172 5.50076 19.7812C5.50076 20.5664 5.66717 21.2343 6.05858 21.9937C6.44295 22.7437 6.92811 23.3836 7.64295 24.082C9.19686 25.6007 10.8797 26.3882 12.5742 26.3882C12.8859 26.3882 13.0476 26.3742 13.5844 26.2968C13.9195 26.2476 14.6508 26.0343 15.2226 25.8164C15.314 25.7812 15.4125 25.7461 15.4453 25.7343C15.4781 25.725 15.6633 25.6523 15.8554 25.575C16.8515 25.1765 17.3554 25.0172 17.9156 24.9234C18.2086 24.8765 18.7617 24.8882 18.9703 24.9468C19.5234 25.1015 19.9922 25.5984 19.9922 26.0273C19.9922 26.1375 19.9406 26.3297 19.8703 26.4843C19.5398 27.2109 18.3773 28.0172 16.3008 28.9687C16.0687 29.0742 15.6844 29.25 15.4453 29.3601C14.4304 29.8242 13.5211 30.3211 12.9328 30.7336C12.4945 31.0429 12.2906 31.2093 11.9203 31.5703C10.9922 32.4773 10.3219 33.5718 10.0219 34.6734C9.90233 35.1047 9.86248 35.407 9.85076 35.9648C9.82029 37.2398 10.1297 38.2828 10.8539 39.3633C11.6719 40.5843 12.9211 41.5101 14.2312 41.8687C15.4383 42.1992 16.6054 42.1148 17.6156 41.6226C19.1203 40.8914 20.0109 39.4804 20.5195 37.0195C20.5406 36.9164 20.5664 36.7781 20.5781 36.7148C20.5875 36.6492 20.6226 36.4382 20.6578 36.2461C20.714 35.9086 20.7328 35.7914 20.789 35.3789C20.8031 35.2757 20.8242 35.1281 20.8359 35.0507C20.864 34.8609 20.8992 34.6007 20.9297 34.3476C20.9625 34.0804 20.9859 33.9187 21.0609 33.4804C21.0937 33.2859 21.1265 33.0914 21.1312 33.0468C21.1453 32.9484 21.1617 32.8687 21.2578 32.4726C21.5203 31.3781 21.975 30.5976 22.493 30.3492C22.8515 30.1781 23.3297 30.2484 23.6554 30.5226C24.0445 30.8461 24.3422 31.4226 24.6047 32.3554C24.7031 32.7 24.764 32.9578 24.9633 33.832C25.364 35.6086 25.9078 36.8484 26.7422 37.8843C27.5601 38.8992 28.8164 39.7617 30.164 40.2304C31.6711 40.7554 33.0375 40.8257 34.3758 40.4507C35.6226 40.1015 36.6656 39.2648 37.1601 38.2195C37.2914 37.9429 37.3687 37.7015 37.4461 37.3359C37.5 37.0804 37.507 36.9843 37.5094 36.5859C37.5117 36.0867 37.4883 35.8757 37.3781 35.4187C37.2797 35.0015 37.1695 34.7015 36.9609 34.2773C36.4804 33.2953 35.7492 32.482 34.7531 31.8164C34.1226 31.3945 33.5883 31.1343 32.1773 30.5531C32.0039 30.4828 31.7601 30.382 31.6359 30.3304C31.2773 30.1828 30.5976 29.8312 30.3164 29.6461C30.0304 29.4609 29.6742 29.1234 29.5687 28.9382C29.475 28.7812 29.3906 28.514 29.3906 28.3875C29.3906 28.0851 29.5828 27.7664 29.8828 27.5625C30.2015 27.3468 30.4992 27.2625 31.125 27.2109C31.4719 27.1828 31.9781 27.2062 32.6601 27.2812C32.7773 27.2953 32.9719 27.3164 33.0937 27.3281C33.2156 27.3398 33.4125 27.3609 33.5273 27.375C33.6445 27.389 33.8344 27.4101 33.9492 27.4218C34.0664 27.4312 34.3453 27.4593 34.5703 27.4828C35.0953 27.5343 36.8109 27.5437 37.1953 27.4968C38.4 27.3468 39.1547 27.1359 40.0055 26.707C40.5656 26.4257 40.9359 26.1656 41.3203 25.7812C42.3304 24.7734 42.7148 23.4539 42.4054 22.0547C42.1312 20.8125 41.4164 19.7484 40.3945 19.0617C39.5789 18.5132 38.6836 18.1898 37.4883 18.007C37.05 17.9414 36.0304 17.9484 35.6015 18.0187C34.1578 18.2601 33.1031 18.8437 31.6172 20.2242C30.7312 21.0492 30.382 21.2953 29.9297 21.4195C29.7023 21.4828 29.5008 21.4828 29.3273 21.4172C28.8117 21.2273 28.5445 20.7398 28.6734 20.2382C28.7531 19.9382 28.8867 19.7015 29.4281 18.914C30.3094 17.625 30.6398 17.1047 31.0804 16.2984C31.7203 15.1218 32.0554 14.2265 32.2992 13.0195C32.3461 12.7851 32.3695 12.5882 32.4023 12.1289C32.4562 11.3836 32.3883 10.6148 32.2054 9.93512C32.0414 9.31637 31.7719 8.69997 31.4578 8.22418C30.6633 7.0195 29.3648 6.20152 27.9117 5.99059C27.682 5.95543 27.0023 5.94371 26.7656 5.9695Z" fill="#1F1F1F"/>
</svg>
